<?xml version="1.0" standalone="no"?>
<!DOCTYPE svg PUBLIC "-//W3C//DTD SVG 20010904//EN"
 "http://www.w3.org/TR/2001/REC-SVG-20010904/DTD/svg10.dtd">
<svg version="1.0" xmlns="http://www.w3.org/2000/svg"
 width="834.000000pt" height="834.000000pt" viewBox="0 0 834.000000 834.000000"
 preserveAspectRatio="xMidYMid meet">
<metadata>
Created by potrace 1.11, written by Peter Selinger 2001-2013
</metadata>
<g transform="translate(0.000000,834.000000) scale(0.100000,-0.100000)"
fill="#000000" stroke="none">
<path d="M1621 8096 c368 -153 772 -484 1102 -901 26 -33 56 -71 67 -85 38
-48 217 -315 280 -420 65 -107 263 -492 314 -610 15 -36 34 -79 42 -97 77
-172 187 -476 269 -748 30 -99 59 -193 64 -210 11 -33 41 -149 46 -178 2 -10
13 -50 23 -90 17 -62 74 -310 86 -373 2 -11 16 -79 30 -150 25 -130 46 -242
51 -279 1 -11 8 -49 14 -85 6 -36 13 -82 16 -103 13 -95 16 -111 20 -131 2
-12 7 -48 11 -81 3 -33 8 -69 9 -80 2 -11 6 -42 9 -70 4 -27 8 -63 11 -80 2
-16 7 -57 10 -90 8 -79 14 -140 20 -195 3 -25 8 -71 10 -102 10 -119 15 -175
20 -248 3 -41 8 -100 10 -130 3 -30 7 -107 11 -170 3 -63 7 -146 9 -185 29
-488 21 -1812 -11 -1844 -2 -2 -4 16 -5 40 -1 44 -3 66 -14 169 -10 99 -15
135 -19 156 -2 12 -7 45 -11 75 -4 30 -20 119 -37 199 -16 80 -31 154 -33 165
-12 59 -92 336 -127 440 -88 265 -232 581 -365 805 -63 105 -212 329 -237 356
-6 7 -54 64 -106 128 -52 64 -156 176 -230 249 -157 153 -161 157 -300 263
-486 373 -1021 600 -1705 723 -33 6 -69 13 -80 15 -11 2 -45 7 -75 11 -30 3
-66 8 -80 10 -177 25 -730 58 -730 43 0 -5 143 -147 250 -248 63 -60 408 -390
485 -465 28 -27 137 -132 241 -231 104 -100 225 -216 269 -259 44 -42 156
-150 249 -238 93 -89 201 -193 240 -230 39 -38 152 -146 250 -240 99 -95 209
-201 247 -237 37 -36 141 -135 230 -222 220 -210 283 -271 419 -402 126 -121
482 -462 570 -546 30 -29 145 -138 254 -244 251 -241 264 -253 369 -354 l86
-84 24 24 c20 20 332 319 462 443 23 22 131 126 241 231 109 106 222 213 249
239 28 27 135 129 239 229 104 100 212 204 241 231 28 28 153 147 276 265 123
118 266 256 318 305 51 50 119 115 151 145 31 30 104 100 162 155 57 55 203
195 323 311 121 116 241 231 266 255 26 24 134 128 240 230 107 103 214 206
239 229 25 24 132 127 239 229 106 102 213 204 236 226 170 162 255 246 255
251 0 6 -326 -2 -420 -11 -25 -2 -79 -6 -120 -9 -75 -6 -161 -16 -191 -21 -9
-2 -40 -6 -70 -10 -100 -13 -269 -43 -394 -71 -96 -21 -286 -75 -403 -113
-604 -200 -1110 -526 -1527 -985 -50 -54 -166 -199 -224 -280 -63 -87 -71 -95
-66 -65 3 19 10 59 15 89 5 30 12 71 15 90 3 19 7 46 10 60 3 14 7 50 10 80 3
30 8 66 10 80 2 14 6 48 10 75 3 28 8 66 10 85 2 19 7 71 11 114 3 44 8 91 9
105 10 76 19 341 19 521 0 292 -12 517 -38 710 -2 14 -6 50 -10 80 -4 30 -12
84 -18 120 -6 36 -11 72 -13 80 -1 8 -6 33 -10 55 -4 22 -9 47 -11 57 -1 9
-21 90 -43 180 -230 931 -736 1659 -1511 2174 -126 84 -203 131 -313 190 -80
43 -325 164 -333 164 -2 0 -32 13 -66 28 -171 77 -411 162 -683 241 -86 25
-396 101 -410 101 -5 -1 15 -11 46 -24z m2546 -7768 c-3 -8 -6 -5 -6 6 -1 11
2 17 5 13 3 -3 4 -12 1 -19z"/>
</g>
</svg>
